<svg width="300" height="300" viewBox="0 -2 55 34" xmlns="http://www.w3.org/2000/svg">
  <path fill="#5D95F3" d="M 28.7 0.75 L 44.1 0.75 Q 47.7 0.75 49.33 2 Q 50.95 3.25 50.95 5.85 L 50.95 5.85 Q 50.95 9.65 49.27 12.1 Q 47.6 14.55 45.2 15.15 L 45.2 15.15 L 45.15 15.45 Q 49.65 16.3 49.65 21.4 L 49.65 21.4 Q 49.65 25.9 47.2 28.95 Q 44.75 32 40.3 32 L 40.3 32 L 23.2 32 L 28.7 0.75 M 38.6 19.55 L 38.6 19.55 L 34.85 19.55 L 33.95 24.65 L 37.65 24.65 Q 38.9 24.65 39.55 23.65 Q 40.2 22.65 40.2 21.1 Q 40.2 19.55 38.6 19.55 M 40 7.6 L 40 7.6 L 37 7.6 L 36.15 12.25 L 39.1 12.25 Q 41.4 12.25 41.4 9 L 41.4 9 Q 41.4 7.6 40 7.6 M 22.1 29.6 L 21.7 31.85 L 0.5 29.6 L 22.1 29.6 M 23.8 19.95 L 23.4 22.2 L 2.2 19.95 L 23.8 19.95 M 24.65 15.15 L 24.25 17.4 L 3.05 15.15 L 24.65 15.15 M 25.5 10.35 L 25.1 12.6 L 3.9 10.35 L 25.5 10.35 M 26.3 5.55 L 25.95 7.8 L 4.75 5.55 L 26.3 5.55 M 22.95 24.75 L 22.55 27 L 1.35 24.75 L 22.95 24.75 M 27.15 0.75 L 26.75 3 L 5.6 0.75 L 27.15 0.75"/>
</svg>
